<?xml version="1.0" encoding="utf-8"?>
<!-- Generator: Adobe Illustrator 27.2.0, SVG Export Plug-In . SVG Version: 6.00 Build 0)  -->
<svg version="1.1" id="Layer_2_00000049182579449543399580000015332299703904520323_"
	 xmlns="http://www.w3.org/2000/svg" xmlns:xlink="http://www.w3.org/1999/xlink" x="0px" y="0px" viewBox="0 0 445.3 119.1"
	 style="enable-background:new 0 0 445.3 119.1;" xml:space="preserve">
<style type="text/css">
	.st0{enable-background:new    ;}
	.st1{fill:#291334;}
	.st2{fill:#65C3C8;}
	.st3{fill:#EF9FBC;}
	.st4{fill:#EEAF3A;}
	.st5{fill:#FAF7F5;}
</style>
<g id="Layer_1-2">
	<g>
		<g>
			<g class="st0">
				<path class="st1" d="M152.6,99.7c0,0.3,0,0.5,0,0.8c0,0.3,0,0.5-0.1,0.7h0.1c0.2-0.4,0.5-0.7,0.9-1c0.4-0.2,0.8-0.4,1.2-0.6
					c0.4-0.1,0.9-0.2,1.4-0.2c0.9,0,1.7,0.1,2.3,0.4c0.6,0.3,1.1,0.7,1.4,1.3c0.3,0.6,0.5,1.4,0.5,2.3v7.2h-1.8v-7.1
					c0-0.9-0.2-1.6-0.6-2c-0.4-0.4-1-0.7-1.9-0.7c-0.8,0-1.5,0.2-2,0.5c-0.5,0.3-0.8,0.8-1,1.4c-0.2,0.6-0.3,1.3-0.3,2.2v5.8h-1.8
					V95.1h1.8V99.7z"/>
				<path class="st1" d="M167.9,99.6c1.4,0,2.4,0.3,3,0.9c0.7,0.6,1,1.5,1,2.8v7.6h-1.3l-0.4-1.6h-0.1c-0.3,0.4-0.6,0.7-1,1
					c-0.3,0.3-0.7,0.5-1.2,0.6c-0.4,0.1-1,0.2-1.6,0.2c-0.7,0-1.3-0.1-1.8-0.4c-0.5-0.2-1-0.6-1.3-1.1c-0.3-0.5-0.5-1.1-0.5-1.9
					c0-1.1,0.4-2,1.3-2.6c0.9-0.6,2.2-0.9,4-1l1.9-0.1v-0.7c0-0.9-0.2-1.6-0.6-1.9c-0.4-0.4-1-0.5-1.7-0.5c-0.6,0-1.1,0.1-1.7,0.3
					c-0.5,0.2-1,0.4-1.5,0.6l-0.6-1.4c0.5-0.3,1.1-0.5,1.7-0.7C166.4,99.6,167.1,99.6,167.9,99.6z M168.4,105.5
					c-1.4,0.1-2.3,0.3-2.9,0.7s-0.8,0.9-0.8,1.6c0,0.6,0.2,1.1,0.6,1.4s0.9,0.4,1.5,0.4c0.9,0,1.7-0.3,2.3-0.8s0.9-1.3,0.9-2.4v-1
					L168.4,105.5z"/>
				<path class="st1" d="M180.7,99.5c1.3,0,2.3,0.3,3,1c0.7,0.6,1,1.7,1,3.1v7.2h-1.8v-7.1c0-0.9-0.2-1.6-0.6-2
					c-0.4-0.4-1-0.7-1.9-0.7c-1.2,0-2.1,0.3-2.6,1s-0.7,1.7-0.7,3v5.8h-1.8V99.7h1.5l0.3,1.5h0.1c0.2-0.4,0.6-0.7,0.9-1
					s0.8-0.4,1.2-0.6C179.7,99.6,180.2,99.5,180.7,99.5z"/>
				<path class="st1" d="M192.1,111.1c-1.4,0-2.5-0.5-3.3-1.4c-0.8-1-1.2-2.4-1.2-4.3c0-1.9,0.4-3.4,1.3-4.3c0.8-1,1.9-1.5,3.3-1.5
					c0.6,0,1.1,0.1,1.5,0.2s0.8,0.3,1.1,0.6s0.6,0.5,0.8,0.8h0.1c0-0.2,0-0.4-0.1-0.8c0-0.4-0.1-0.6-0.1-0.8v-4.4h1.8v15.8h-1.5
					l-0.3-1.5h-0.1c-0.2,0.3-0.5,0.6-0.8,0.9c-0.3,0.3-0.7,0.5-1.1,0.6S192.7,111.1,192.1,111.1z M192.4,109.6c1.2,0,2-0.3,2.5-1
					c0.5-0.6,0.7-1.6,0.7-2.9v-0.3c0-1.4-0.2-2.4-0.7-3.2c-0.5-0.7-1.3-1.1-2.5-1.1c-1,0-1.7,0.4-2.2,1.2c-0.5,0.8-0.7,1.8-0.7,3.1
					c0,1.3,0.2,2.4,0.7,3.1C190.6,109.2,191.4,109.6,192.4,109.6z"/>
				<path class="st1" d="M208.2,107.8c0,0.7-0.2,1.3-0.5,1.8c-0.4,0.5-0.9,0.9-1.5,1.1c-0.7,0.2-1.5,0.4-2.4,0.4
					c-0.8,0-1.4-0.1-2-0.2c-0.6-0.1-1.1-0.3-1.5-0.5v-1.7c0.4,0.2,1,0.4,1.6,0.6c0.6,0.2,1.3,0.3,1.9,0.3c0.9,0,1.6-0.1,2-0.4
					c0.4-0.3,0.6-0.7,0.6-1.2c0-0.3-0.1-0.5-0.2-0.7s-0.4-0.4-0.8-0.7c-0.4-0.2-1-0.5-1.7-0.7c-0.7-0.3-1.3-0.6-1.8-0.8
					c-0.5-0.3-0.9-0.6-1.2-1s-0.4-0.9-0.4-1.5c0-0.9,0.4-1.7,1.2-2.2c0.8-0.5,1.8-0.8,3-0.8c0.7,0,1.3,0.1,1.9,0.2
					c0.6,0.1,1.1,0.3,1.7,0.6l-0.6,1.5c-0.5-0.2-1-0.4-1.5-0.5c-0.5-0.1-1-0.2-1.6-0.2c-0.7,0-1.3,0.1-1.7,0.4s-0.6,0.6-0.6,1
					c0,0.3,0.1,0.6,0.3,0.8c0.2,0.2,0.5,0.4,0.9,0.6c0.4,0.2,1,0.4,1.7,0.7c0.7,0.3,1.3,0.5,1.8,0.8c0.5,0.3,0.9,0.6,1.1,1
					C208,106.7,208.2,107.2,208.2,107.8z"/>
				<path class="st1" d="M220.5,105.3c0,0.9-0.1,1.7-0.4,2.5c-0.2,0.7-0.6,1.3-1,1.8c-0.5,0.5-1,0.9-1.6,1.1
					c-0.6,0.3-1.4,0.4-2.1,0.4c-0.7,0-1.4-0.1-2-0.4s-1.2-0.6-1.6-1.1c-0.5-0.5-0.8-1.1-1.1-1.8c-0.3-0.7-0.4-1.5-0.4-2.5
					c0-1.2,0.2-2.3,0.6-3.1c0.4-0.9,1-1.5,1.8-2c0.8-0.5,1.7-0.7,2.8-0.7c1,0,1.9,0.2,2.7,0.7s1.4,1.1,1.8,2
					S220.5,104.1,220.5,105.3z M212.1,105.3c0,0.9,0.1,1.6,0.3,2.3c0.2,0.6,0.6,1.1,1.1,1.5c0.5,0.3,1.1,0.5,1.8,0.5
					c0.7,0,1.4-0.2,1.8-0.5c0.5-0.3,0.8-0.8,1.1-1.5c0.2-0.6,0.3-1.4,0.3-2.3c0-0.9-0.1-1.6-0.4-2.3c-0.2-0.6-0.6-1.1-1.1-1.4
					c-0.5-0.3-1.1-0.5-1.9-0.5c-1.1,0-2,0.4-2.5,1.1C212.4,102.9,212.1,104,212.1,105.3z"/>
				<path class="st1" d="M235.6,99.5c1.3,0,2.2,0.3,2.8,1c0.6,0.6,0.9,1.7,0.9,3.1v7.2h-1.8v-7.2c0-0.9-0.2-1.5-0.5-2
					c-0.4-0.4-0.9-0.7-1.7-0.7c-1.1,0-1.9,0.3-2.3,0.9s-0.7,1.5-0.7,2.7v6.1h-1.8v-7.2c0-0.6-0.1-1.1-0.2-1.5
					c-0.2-0.4-0.4-0.7-0.7-0.9c-0.3-0.2-0.8-0.3-1.3-0.3c-0.7,0-1.3,0.2-1.8,0.5c-0.4,0.3-0.7,0.8-0.9,1.4c-0.2,0.6-0.3,1.3-0.3,2.2
					v5.8h-1.8V99.7h1.5l0.3,1.5h0.1c0.2-0.4,0.5-0.7,0.9-1c0.3-0.3,0.7-0.4,1.1-0.6c0.4-0.1,0.8-0.2,1.3-0.2c0.9,0,1.6,0.2,2.2,0.5
					c0.6,0.3,1,0.8,1.3,1.4h0.1c0.4-0.6,0.9-1.1,1.5-1.4C234.2,99.7,234.9,99.5,235.6,99.5z"/>
				<path class="st1" d="M247.1,99.5c1,0,1.8,0.2,2.5,0.6c0.7,0.4,1.2,1,1.6,1.8c0.4,0.8,0.6,1.6,0.6,2.6v1.1h-7.6
					c0,1.3,0.3,2.2,1,2.9c0.6,0.7,1.5,1,2.6,1c0.7,0,1.3-0.1,1.9-0.2c0.5-0.1,1.1-0.3,1.7-0.6v1.6c-0.6,0.2-1.1,0.4-1.7,0.6
					s-1.2,0.2-2,0.2c-1.1,0-2-0.2-2.8-0.6c-0.8-0.4-1.4-1.1-1.9-1.9s-0.7-1.9-0.7-3.1c0-1.2,0.2-2.3,0.6-3.1c0.4-0.9,1-1.5,1.7-2
					C245.3,99.8,246.2,99.5,247.1,99.5z M247.1,101c-0.9,0-1.6,0.3-2.1,0.8s-0.8,1.3-0.9,2.3h5.7c0-0.6-0.1-1.2-0.3-1.7
					c-0.2-0.5-0.5-0.8-0.9-1.1C248.2,101.2,247.7,101,247.1,101z"/>
				<path class="st1" d="M263.9,111.1c-1.4,0-2.5-0.5-3.3-1.4c-0.8-1-1.2-2.4-1.2-4.3c0-1.9,0.4-3.4,1.3-4.3c0.8-1,1.9-1.5,3.3-1.5
					c0.6,0,1.1,0.1,1.5,0.2c0.4,0.1,0.8,0.3,1.1,0.6s0.6,0.5,0.8,0.8h0.1c0-0.2,0-0.4-0.1-0.8c0-0.4-0.1-0.6-0.1-0.8v-4.4h1.8v15.8
					h-1.5l-0.3-1.5h-0.1c-0.2,0.3-0.5,0.6-0.8,0.9c-0.3,0.3-0.7,0.5-1.1,0.6C265,111,264.5,111.1,263.9,111.1z M264.2,109.6
					c1.2,0,2-0.3,2.5-1c0.5-0.6,0.7-1.6,0.7-2.9v-0.3c0-1.4-0.2-2.4-0.7-3.2c-0.5-0.7-1.3-1.1-2.5-1.1c-1,0-1.7,0.4-2.2,1.2
					c-0.5,0.8-0.7,1.8-0.7,3.1c0,1.3,0.2,2.4,0.7,3.1C262.4,109.2,263.2,109.6,264.2,109.6z"/>
				<path class="st1" d="M276.9,99.6c1.4,0,2.4,0.3,3,0.9c0.7,0.6,1,1.5,1,2.8v7.6h-1.3l-0.4-1.6h-0.1c-0.3,0.4-0.6,0.7-1,1
					c-0.3,0.3-0.7,0.5-1.2,0.6c-0.4,0.1-1,0.2-1.6,0.2c-0.7,0-1.3-0.1-1.8-0.4s-1-0.6-1.3-1.1c-0.3-0.5-0.5-1.1-0.5-1.9
					c0-1.1,0.4-2,1.3-2.6c0.9-0.6,2.2-0.9,4-1l1.9-0.1v-0.7c0-0.9-0.2-1.6-0.6-1.9s-1-0.5-1.7-0.5c-0.6,0-1.1,0.1-1.7,0.3
					c-0.5,0.2-1,0.4-1.5,0.6l-0.6-1.4c0.5-0.3,1.1-0.5,1.7-0.7C275.5,99.6,276.2,99.6,276.9,99.6z M277.5,105.5
					c-1.4,0.1-2.3,0.3-2.9,0.7s-0.8,0.9-0.8,1.6c0,0.6,0.2,1.1,0.6,1.4s0.9,0.4,1.5,0.4c0.9,0,1.7-0.3,2.3-0.8s0.9-1.3,0.9-2.4v-1
					L277.5,105.5z"/>
				<path class="st1" d="M285.3,95.6c0.3,0,0.5,0.1,0.7,0.3c0.2,0.2,0.3,0.5,0.3,0.9c0,0.4-0.1,0.7-0.3,0.9
					c-0.2,0.2-0.5,0.3-0.7,0.3c-0.3,0-0.6-0.1-0.8-0.3c-0.2-0.2-0.3-0.5-0.3-0.9c0-0.4,0.1-0.7,0.3-0.9
					C284.7,95.7,285,95.6,285.3,95.6z M286.2,99.7v11.1h-1.8V99.7H286.2z"/>
				<path class="st1" d="M291.6,110.9h-1.8V95.1h1.8V110.9z"/>
				<path class="st1" d="M293.3,99.7h2l2.4,6.3c0.1,0.4,0.3,0.7,0.4,1.1c0.1,0.3,0.2,0.7,0.3,1c0.1,0.3,0.2,0.6,0.2,0.9h0.1
					c0.1-0.3,0.2-0.8,0.4-1.4c0.2-0.6,0.4-1.1,0.6-1.7l2.3-6.3h2l-4.8,12.7c-0.3,0.7-0.6,1.3-0.9,1.8c-0.4,0.5-0.8,0.9-1.3,1.2
					c-0.5,0.3-1.1,0.4-1.8,0.4c-0.3,0-0.6,0-0.9-0.1s-0.5-0.1-0.6-0.1v-1.5c0.2,0,0.3,0.1,0.5,0.1c0.2,0,0.4,0,0.7,0
					c0.4,0,0.8-0.1,1.1-0.2c0.3-0.2,0.6-0.4,0.8-0.7c0.2-0.3,0.4-0.6,0.6-1l0.6-1.5L293.3,99.7z"/>
				<path class="st1" d="M312.9,99.7c0,0.3,0,0.5,0,0.8c0,0.3,0,0.5-0.1,0.7h0.1c0.2-0.4,0.5-0.7,0.9-1c0.4-0.2,0.8-0.4,1.2-0.6
					s0.9-0.2,1.4-0.2c0.9,0,1.7,0.1,2.3,0.4c0.6,0.3,1.1,0.7,1.4,1.3c0.3,0.6,0.5,1.4,0.5,2.3v7.2h-1.8v-7.1c0-0.9-0.2-1.6-0.6-2
					s-1-0.7-1.9-0.7c-0.8,0-1.5,0.2-2,0.5c-0.5,0.3-0.8,0.8-1,1.4c-0.2,0.6-0.3,1.3-0.3,2.2v5.8h-1.8V95.1h1.8V99.7z"/>
				<path class="st1" d="M328.2,99.5c1,0,1.8,0.2,2.5,0.6c0.7,0.4,1.2,1,1.6,1.8c0.4,0.8,0.6,1.6,0.6,2.6v1.1h-7.6
					c0,1.3,0.3,2.2,1,2.9c0.6,0.7,1.5,1,2.6,1c0.7,0,1.3-0.1,1.9-0.2c0.5-0.1,1.1-0.3,1.7-0.6v1.6c-0.6,0.2-1.1,0.4-1.7,0.6
					s-1.2,0.2-2,0.2c-1.1,0-2-0.2-2.8-0.6c-0.8-0.4-1.4-1.1-1.9-1.9s-0.7-1.9-0.7-3.1c0-1.2,0.2-2.3,0.6-3.1c0.4-0.9,1-1.5,1.7-2
					C326.4,99.8,327.2,99.5,328.2,99.5z M328.2,101c-0.9,0-1.6,0.3-2.1,0.8s-0.8,1.3-0.9,2.3h5.7c0-0.6-0.1-1.2-0.3-1.7
					c-0.2-0.5-0.5-0.8-0.9-1.1C329.3,101.2,328.8,101,328.2,101z"/>
				<path class="st1" d="M339.9,99.6c1.4,0,2.4,0.3,3,0.9c0.7,0.6,1,1.5,1,2.8v7.6h-1.3l-0.4-1.6h-0.1c-0.3,0.4-0.6,0.7-1,1
					c-0.3,0.3-0.7,0.5-1.2,0.6c-0.4,0.1-1,0.2-1.6,0.2c-0.7,0-1.3-0.1-1.8-0.4c-0.5-0.2-1-0.6-1.3-1.1c-0.3-0.5-0.5-1.1-0.5-1.9
					c0-1.1,0.4-2,1.3-2.6c0.9-0.6,2.2-0.9,4-1l1.9-0.1v-0.7c0-0.9-0.2-1.6-0.6-1.9c-0.4-0.4-1-0.5-1.7-0.5c-0.6,0-1.1,0.1-1.7,0.3
					c-0.5,0.2-1,0.4-1.5,0.6l-0.6-1.4c0.5-0.3,1.1-0.5,1.7-0.7C338.4,99.6,339.1,99.6,339.9,99.6z M340.4,105.5
					c-1.4,0.1-2.3,0.3-2.9,0.7s-0.8,0.9-0.8,1.6c0,0.6,0.2,1.1,0.6,1.4s0.9,0.4,1.5,0.4c0.9,0,1.7-0.3,2.3-0.8s0.9-1.3,0.9-2.4v-1
					L340.4,105.5z"/>
				<path class="st1" d="M349.1,110.9h-1.8V95.1h1.8V110.9z"/>
				<path class="st1" d="M356.4,109.6c0.3,0,0.6,0,0.9-0.1s0.5-0.1,0.7-0.2v1.4c-0.2,0.1-0.5,0.2-0.8,0.2c-0.4,0.1-0.7,0.1-1,0.1
					c-0.6,0-1.1-0.1-1.6-0.3c-0.5-0.2-0.9-0.5-1.2-1c-0.3-0.5-0.5-1.2-0.5-2.1v-6.5h-1.6v-0.9l1.6-0.7l0.7-2.4h1.1v2.6h3.2v1.4h-3.2
					v6.4c0,0.7,0.2,1.2,0.5,1.5S355.9,109.6,356.4,109.6z"/>
				<path class="st1" d="M362,99.7c0,0.3,0,0.5,0,0.8c0,0.3,0,0.5-0.1,0.7h0.1c0.2-0.4,0.5-0.7,0.9-1c0.4-0.2,0.8-0.4,1.2-0.6
					c0.4-0.1,0.9-0.2,1.4-0.2c0.9,0,1.7,0.1,2.3,0.4c0.6,0.3,1.1,0.7,1.4,1.3c0.3,0.6,0.5,1.4,0.5,2.3v7.2h-1.8v-7.1
					c0-0.9-0.2-1.6-0.6-2c-0.4-0.4-1-0.7-1.9-0.7c-0.8,0-1.5,0.2-2,0.5s-0.8,0.8-1,1.4c-0.2,0.6-0.3,1.3-0.3,2.2v5.8h-1.8V95.1h1.8
					V99.7z"/>
				<path class="st1" d="M382.1,109.6c0.3,0,0.6,0,0.9-0.1s0.5-0.1,0.7-0.2v1.4c-0.2,0.1-0.5,0.2-0.8,0.2c-0.4,0.1-0.7,0.1-1,0.1
					c-0.6,0-1.1-0.1-1.6-0.3c-0.5-0.2-0.9-0.5-1.2-1c-0.3-0.5-0.5-1.2-0.5-2.1v-6.5h-1.6v-0.9l1.6-0.7l0.7-2.4h1.1v2.6h3.2v1.4h-3.2
					v6.4c0,0.7,0.2,1.2,0.5,1.5S381.6,109.6,382.1,109.6z"/>
			</g>
			<g class="st0">
				<path class="st1" d="M391.1,99.5c0.2,0,0.4,0,0.7,0c0.2,0,0.5,0.1,0.6,0.1l-0.2,1.7c-0.2,0-0.4-0.1-0.6-0.1c-0.2,0-0.4,0-0.6,0
					c-0.4,0-0.8,0.1-1.2,0.3c-0.4,0.2-0.7,0.4-1,0.8s-0.5,0.7-0.7,1.2s-0.3,1-0.3,1.5v5.9h-1.8V99.7h1.5l0.2,2h0.1
					c0.2-0.4,0.5-0.8,0.9-1.1c0.3-0.3,0.7-0.6,1.1-0.8C390.1,99.6,390.6,99.5,391.1,99.5z"/>
			</g>
			<g class="st0">
				<path class="st1" d="M398.3,99.6c1.4,0,2.4,0.3,3,0.9c0.7,0.6,1,1.5,1,2.8v7.6h-1.3l-0.4-1.6h-0.1c-0.3,0.4-0.6,0.7-1,1
					c-0.3,0.3-0.7,0.5-1.2,0.6c-0.4,0.1-1,0.2-1.6,0.2c-0.7,0-1.3-0.1-1.8-0.4c-0.5-0.2-1-0.6-1.3-1.1c-0.3-0.5-0.5-1.1-0.5-1.9
					c0-1.1,0.4-2,1.3-2.6c0.9-0.6,2.2-0.9,4-1l1.9-0.1v-0.7c0-0.9-0.2-1.6-0.6-1.9c-0.4-0.4-1-0.5-1.7-0.5c-0.6,0-1.1,0.1-1.7,0.3
					c-0.5,0.2-1,0.4-1.5,0.6l-0.6-1.4c0.5-0.3,1.1-0.5,1.7-0.7C396.8,99.6,397.5,99.6,398.3,99.6z M398.8,105.5
					c-1.4,0.1-2.3,0.3-2.9,0.7s-0.8,0.9-0.8,1.6c0,0.6,0.2,1.1,0.6,1.4s0.9,0.4,1.5,0.4c0.9,0,1.7-0.3,2.3-0.8s0.9-1.3,0.9-2.4v-1
					L398.8,105.5z"/>
				<path class="st1" d="M410.2,111.1c-1,0-1.9-0.2-2.6-0.6s-1.4-1-1.8-1.9s-0.7-1.9-0.7-3.2c0-1.4,0.2-2.5,0.7-3.3s1.1-1.5,1.9-1.9
					c0.8-0.4,1.7-0.6,2.7-0.6c0.6,0,1.1,0.1,1.6,0.2c0.5,0.1,1,0.3,1.3,0.4l-0.6,1.5c-0.3-0.1-0.7-0.2-1.2-0.4
					c-0.4-0.1-0.9-0.2-1.2-0.2c-0.7,0-1.4,0.2-1.8,0.5c-0.5,0.3-0.8,0.8-1.1,1.4c-0.2,0.6-0.4,1.4-0.4,2.3c0,0.9,0.1,1.6,0.4,2.3
					s0.6,1.1,1.1,1.4s1.1,0.5,1.8,0.5c0.6,0,1.1-0.1,1.6-0.2c0.5-0.1,0.9-0.3,1.3-0.5v1.6c-0.4,0.2-0.8,0.3-1.2,0.4
					C411.3,111,410.8,111.1,410.2,111.1z"/>
				<path class="st1" d="M417.5,103.3c0,0.2,0,0.5,0,0.9s0,0.7-0.1,0.9h0.1c0.1-0.1,0.2-0.3,0.4-0.5c0.2-0.2,0.3-0.4,0.5-0.6
					c0.2-0.2,0.3-0.4,0.4-0.5l3.6-3.8h2.1l-4.5,4.8l4.8,6.4h-2.2l-3.9-5.2l-1.3,1.1v4.1h-1.8V95.1h1.8V103.3z"/>
				<path class="st1" d="M431.1,99.5c1,0,1.8,0.2,2.5,0.6c0.7,0.4,1.2,1,1.6,1.8c0.4,0.8,0.6,1.6,0.6,2.6v1.1H428
					c0,1.3,0.3,2.2,1,2.9c0.6,0.7,1.5,1,2.6,1c0.7,0,1.3-0.1,1.9-0.2c0.5-0.1,1.1-0.3,1.7-0.6v1.6c-0.6,0.2-1.1,0.4-1.7,0.6
					s-1.2,0.2-2,0.2c-1.1,0-2-0.2-2.8-0.6c-0.8-0.4-1.4-1.1-1.9-1.9s-0.7-1.9-0.7-3.1c0-1.2,0.2-2.3,0.6-3.1c0.4-0.9,1-1.5,1.7-2
					C429.2,99.8,430.1,99.5,431.1,99.5z M431,101c-0.9,0-1.6,0.3-2.1,0.8s-0.8,1.3-0.9,2.3h5.7c0-0.6-0.1-1.2-0.3-1.7
					c-0.2-0.5-0.5-0.8-0.9-1.1C432.2,101.2,431.7,101,431,101z"/>
				<path class="st1" d="M443.7,99.5c0.2,0,0.4,0,0.7,0c0.2,0,0.5,0.1,0.6,0.1l-0.2,1.7c-0.2,0-0.4-0.1-0.6-0.1c-0.2,0-0.4,0-0.6,0
					c-0.4,0-0.8,0.1-1.2,0.3c-0.4,0.2-0.7,0.4-1,0.8s-0.5,0.7-0.7,1.2s-0.3,1-0.3,1.5v5.9h-1.8V99.7h1.5l0.2,2h0.1
					c0.2-0.4,0.5-0.8,0.9-1.1c0.3-0.3,0.7-0.6,1.1-0.8C442.7,99.6,443.2,99.5,443.7,99.5z"/>
			</g>
			<g>
				<path class="st1" d="M201.7,67.9c0.2,0.5,0.3,1.1,0.2,2c-0.2,1.6-0.8,2.8-1.7,3.7c-4.8,4.8-9.6,7.1-14.2,7.1
					c-4,0-6.8-1.6-8.6-4.5c-1.7-3-2-7.2-1.1-12.7c0.2-1.3,0.5-2.7,0.8-4c-2.7,0.5-8.3,1.3-9,1.3c-1.5,4-3.6,8.9-6.4,14.6
					c-1.7,3.4-3.8,5.1-6.3,5.1c-2.6,0-3.6-1.2-3-3.4c0.1-0.5,0.4-1.2,0.9-2.1c2.8-5.3,4.8-9.8,6.3-13.5c-1,0-1.9,0.1-2.9,0.1
					c-1.3,0-2.2-0.2-2.7-0.7c-0.5-0.5-0.7-1.2-0.5-2.2c0.2-1.3,0.8-2.2,1.6-2.8c0.9-0.6,2.1-0.9,3.9-1c1.1,0,2.1-0.1,3.2-0.1
					c1.9-5.5,2.8-9.7,3-12.6c0.2-1.8,0-3.1-0.5-3.8c-0.5-0.7-1.2-1-2.1-1c-2.7,0-5.9,2.3-9.8,6.9c-0.6,0.7-1.2,1-1.8,1
					c-0.6,0-1-0.2-1.3-0.8s-0.5-1.1-0.4-1.9c0.1-1.2,0.7-2.5,1.8-3.8c1.9-2.4,4.2-4.3,6.8-5.9c2.7-1.6,5.3-2.4,8-2.4
					c2.5,0,4.4,0.8,5.8,2.6c1.3,1.7,1.9,4.4,1.6,8.1c-0.3,3.2-1.1,7.7-2.9,13.2c1.9-0.1,6.5-0.6,8.3-0.9c1.2-4.3,2.7-8.4,4.4-12.2
					c1.7-3.8,3.6-6.9,5.8-9.3c2.2-2.4,4.6-3.6,7.2-3.6c1.9,0,3.5,0.8,4.6,2.3c1.1,1.6,1.6,3.6,1.5,6.1c-0.4,9.8-6.1,16.7-16.6,20.4
					c-0.3,1.6-0.6,3.2-0.9,4.9c-0.6,4.1-0.6,7.1,0.1,8.8c0.7,1.7,2.1,2.6,4,2.6c1.7,0,3.3-0.4,4.8-1.2s3.3-2.3,5.3-4.3
					c0.6-0.6,1.1-0.8,1.8-0.8C201.1,67.2,201.4,67.5,201.7,67.9L201.7,67.9z M192.8,35.9c-1,1.6-2,3.7-3.1,6.5s-2,5.7-2.8,8.9
					c3.3-1.3,5.8-3.2,7.5-5.6c1.7-2.4,2.6-5.5,2.8-9.3c0-0.9-0.1-1.6-0.4-2.1c-0.3-0.5-0.7-0.8-1.1-0.8
					C194.7,33.5,193.8,34.3,192.8,35.9L192.8,35.9z"/>
				<path class="st1" d="M227.4,68c0.2,0.5,0.3,1.1,0.2,2c-0.2,1.6-0.7,2.8-1.6,3.7c-1.7,1.8-4,3.4-7,4.9s-6.1,2.2-9.2,2.2
					c-4.3,0-7.5-1.2-9.4-3.5c-2-2.3-2.6-5.4-2.1-9.3c0.4-2.7,1.3-5.3,2.8-7.6c1.4-2.3,3.2-4.2,5.4-5.6s4.5-2.1,7.1-2.1
					c2.3,0,4.1,0.7,5.3,2.1c1.3,1.4,1.8,3.2,1.6,5.6c-0.3,2.8-1.5,5.1-3.7,7.1c-2.2,2-5.8,3.5-10.7,4.6c0.7,1.8,2.5,2.8,5.4,2.8
					c1.8,0,4-0.6,6.5-1.8s4.7-2.9,6.6-4.9c0.5-0.6,1.1-0.8,1.7-0.8C226.8,67.3,227.2,67.6,227.4,68L227.4,68z M208.1,61.2
					c-1.2,1.7-2,3.8-2.3,6.2c0,0,0,0.1,0,0.1c2.4-0.5,4.4-1.4,5.9-2.5c1.5-1.1,2.3-2.4,2.5-3.9c0.1-0.8-0.1-1.4-0.4-1.8
					s-0.9-0.7-1.6-0.7C210.6,58.6,209.3,59.5,208.1,61.2L208.1,61.2z"/>
				<path class="st1" d="M222.9,78.3c-1.3-1.8-1.7-4.2-1.4-7.1c0.4-3.2,1.4-6.2,3.2-9.1c1.7-2.8,3.9-5.2,6.4-6.9
					c2.6-1.7,5.2-2.6,7.9-2.6c0.9,0,1.4,0.2,1.7,0.5c0.3,0.3,0.5,1,0.6,1.8c0.8-0.2,1.7-0.2,2.6-0.2c1.9,0,2.9,0.7,2.8,2.1
					c-0.1,0.8-0.4,2.8-1.2,6c-1.2,4.6-1.9,7.8-2.1,9.6c-0.1,0.6,0.1,1.1,0.3,1.4c0.3,0.4,0.6,0.6,1.1,0.6c0.8,0,1.8-0.5,2.9-1.5
					c1.2-1,2.8-2.6,4.7-4.8c0.5-0.6,1.1-0.8,1.7-0.8c0.5,0,0.9,0.2,1.2,0.7c0.3,0.5,0.4,1.2,0.3,2c-0.1,1.6-0.6,2.9-1.4,3.7
					c-1.8,2.1-3.7,3.8-5.7,5.2c-2,1.4-3.9,2.1-5.7,2.1c-1.4,0-2.6-0.5-3.6-1.4c-1-0.9-1.8-2.2-2.2-3.7c-2.4,3.3-5.4,5-8.6,5
					C226,81,224.1,80.1,222.9,78.3L222.9,78.3z M234.2,73.4c0.9-1,1.6-2.4,2.1-4.1c1.1-3.7,2.1-7.4,3.1-11.1c-1.7,0-3.2,0.7-4.7,1.9
					s-2.8,2.8-3.8,4.8c-1,2-1.6,4.1-1.9,6.4c-0.1,1.2,0,2.2,0.5,2.8s1.1,0.9,2,0.9S233.3,74.5,234.2,73.4L234.2,73.4z"/>
				<path class="st1" d="M275,67.1c0.3,0.5,0.4,1.3,0.4,2.2c0,1.8-0.5,3.1-1.3,4.1c-1.8,2.3-3.8,4.2-5.9,5.7
					c-2.1,1.5-4.5,2.2-7.1,2.2c-3.6,0-6.2-1.8-7.7-5.3c-1.5-3.5-2.1-8.1-1.8-13.6c0.3-5.3,1.2-11.4,2.6-18.3s3.3-12.7,5.8-17.7
					c2.4-4.9,5.3-7.4,8.6-7.4c1.9,0,3.3,1,4.4,2.9c1.1,2,1.6,4.8,1.5,8.4c0,5.2-1.4,11.3-4.1,18.2s-6.5,13.8-11.4,20.5
					c0.2,1.8,0.6,3.1,1.2,3.9c0.6,0.8,1.4,1.2,2.5,1.2c1.7,0,3.1-0.5,4.5-1.5c1.3-1,3-2.8,5-5.3c0.5-0.6,1-0.9,1.6-0.9
					C274.3,66.2,274.7,66.5,275,67.1L275,67.1z M264.2,30.9c-1.2,3.7-2.2,8.2-3.2,13.6s-1.7,10.6-2,15.5c3-5.1,5.4-10.3,7.2-15.5
					c1.8-5.2,2.6-9.9,2.7-14.2c0-3.3-0.5-5-1.6-5C266.3,25.4,265.3,27.3,264.2,30.9L264.2,30.9z"/>
				<path class="st1" d="M295.7,68.3c0.3,0.5,0.4,1.2,0.4,2c0,1.6-0.3,2.9-1,3.8c-1.5,2.2-3.2,3.9-5.1,5.3c-1.9,1.4-4,2-6.4,2
					c-7.5-0.1-11-5.9-10.6-17.5c0-1.8,0.1-3.6,0.3-5.4c-0.7,0-1.4,0-2.1,0c-1.1,0-1.8-0.2-2.1-0.7c-0.4-0.4-0.5-1.2-0.5-2.1
					c0.1-2.3,0.9-3.4,2.5-3.4c1,0,2,0,3,0c0.7-4.5,1.6-8.5,2.9-12.2c1.2-3.7,2.7-6.6,4.4-8.8c1.7-2.2,3.6-3.3,5.5-3.3
					c1.5,0,2.6,0.7,3.4,2.2c0.8,1.5,1.2,3.4,1.2,5.6c0,6.3-2.3,11.8-6.8,16.4c2,0,3.9,0,5.9,0c0.6,0,1,0.1,1.2,0.4
					c0.2,0.3,0.4,0.8,0.4,1.6c0,2.8-2,4.2-6,4.2c-2.1,0-4.3,0-6.4,0c-0.1,2-0.2,3.6-0.2,4.7c-0.1,4.2,0.3,7.2,1.1,8.9
					c0.9,1.7,2.2,2.6,4.1,2.6c1.5,0,2.9-0.5,4.1-1.6c1.2-1.1,2.6-2.6,4.2-4.7c0.4-0.6,0.9-0.8,1.4-0.8
					C295.1,67.6,295.4,67.8,295.7,68.3L295.7,68.3z M283.7,36.1c-0.6,1.5-1.3,3.6-1.9,6.3c-0.6,2.7-1.1,5.7-1.5,9
					c2.1-2.1,3.6-4.4,4.7-7c1-2.6,1.6-4.9,1.6-7c0-2.4-0.4-3.6-1.1-3.6C285,33.8,284.4,34.6,283.7,36.1L283.7,36.1z"/>
				<path class="st1" d="M326.5,68.4c0.3,0.5,0.5,1.2,0.6,2c0.1,1.6-0.2,2.9-0.9,3.8c-1.7,2.2-3.6,3.9-5.5,5.3s-4.1,2.1-6.7,2.1
					c-2.1,0-3.7-0.6-4.8-1.8s-1.7-2.9-1.7-5.2c0-1.1,0.2-3.2,0.7-6.1c0.5-2.6,0.7-4.3,0.7-5.3c0-0.7-0.2-1-0.7-1
					c-0.5,0-1.2,0.7-2.2,2c-0.9,1.4-1.9,3.2-2.8,5.4c-0.9,2.2-1.7,4.6-2.2,7.1c-0.7,3.2-2.6,4.9-5.7,4.8c-1.2,0-2-0.4-2.4-1.3
					s-0.6-2.4-0.6-4.7c0-1.3,0-2.3,0.1-3.1c0-1.6,0-3.2,0.1-4.9c0-6.2,0.6-12.8,1.9-19.5c1.2-6.8,3-12.5,5.4-17.1
					c2.4-4.6,5.3-7,8.6-7c1.8,0,3.2,0.8,4.3,2.4c1.1,1.6,1.7,3.7,1.7,6.3c0,4.1-1.1,8.4-3.3,12.8s-5.9,9.6-11.2,15.5
					c-0.1,2.1-0.1,4.3-0.1,6.5c1.3-3.5,2.7-6.3,4.3-8.4c1.6-2.2,3.1-3.7,4.7-4.7c1.5-0.9,3-1.4,4.3-1.4c2.6,0,3.9,1.3,3.9,4
					c0,1.6-0.3,4.5-1,8.6c-0.6,3.6-0.9,5.9-0.9,7c0.1,1.6,0.7,2.4,1.9,2.4c0.8,0,1.8-0.5,2.8-1.5s2.5-2.6,4.2-4.8
					c0.5-0.6,1-0.9,1.6-0.8C325.8,67.6,326.2,67.9,326.5,68.4L326.5,68.4z M304.6,33c-0.9,2.1-1.7,4.9-2.5,8.5
					c-0.8,3.6-1.4,7.4-1.9,11.6c2.4-3,4.4-6.2,6-9.7c1.5-3.5,2.3-6.7,2.3-9.5c0-1.3-0.1-2.3-0.4-3c-0.3-0.7-0.7-1-1.2-1
					C306.2,29.9,305.5,30.9,304.6,33L304.6,33z"/>
				<path class="st1" d="M329.5,81.5c-1.2-1-1.8-2.1-1.9-3.3c-0.1-1.1,0.3-2,1-2.8s1.8-1.2,3.3-1.2c0.5,0,1.1,0.1,1.9,0.2
					c0.7,0.1,1.3,0.2,1.6,0.2c-0.1-1.1-0.4-2.1-0.9-3c-0.5-0.9-1.1-1.8-1.8-2.7c-0.7-0.9-1.4-1.7-1.9-2.3c-1.1,2.4-2.2,4.4-3.4,6
					c-1.1,1.6-2.4,3.1-3.8,4.5c-0.7,0.7-1.5,1.1-2.3,1.1c-0.6,0-1.2-0.2-1.6-0.7s-0.7-1.1-0.7-1.8c0-0.8,0.2-1.6,0.7-2.3
					c0.2-0.3,0.5-0.7,0.7-1c2.1-2.8,3.6-5.1,4.7-6.8c0.6-1.2,1.4-2.8,2.2-4.7s1.6-4,2.4-6.2c0.7-1.8,2.2-2.7,4.6-2.7
					c1.1,0,1.9,0.1,2.3,0.3c0.4,0.2,0.7,0.5,0.7,1c0,0.2,0,0.6-0.2,1.2c-0.1,0.5-0.3,1.1-0.6,1.6c-0.6,1.5-0.9,2.7-0.9,3.7
					c0,0.6,0.3,1.3,0.7,2c0.5,0.7,1.2,1.7,2.1,2.8c1.4,1.7,2.5,3.2,3.2,4.4s1.2,2.5,1.3,4c0,0.4,0,1,0,1.7c1.9-0.8,4.1-2.8,6.4-6.2
					c0.4-0.6,1-0.9,1.5-0.9c0.5,0,1,0.2,1.3,0.7c0.4,0.5,0.6,1.2,0.6,2c0.1,1.6-0.1,2.8-0.8,3.8c-1.8,2.5-3.5,4.3-5.3,5.2
					s-4,1.4-6.8,1.5c-1.5,1.4-3.4,2.1-5.7,2.1C332.4,83,330.7,82.5,329.5,81.5L329.5,81.5z"/>
				<path class="st1" d="M379.2,63.3c0.3,0.5,0.6,1.2,0.7,2c0.2,2-0.2,3.1-1.3,3.5c-2.3,0.9-4.9,1.3-7.8,1.5
					c-0.3,3.4-1.5,6.2-3.5,8.3s-4.5,3.1-7.4,3.1c-2.5,0-4.6-0.6-6.5-1.8s-3.4-2.8-4.5-4.8c-1.1-2-1.7-4.1-1.9-6.4
					c-0.3-3.1,0.1-5.9,1.1-8.3c1-2.4,2.4-4.3,4.4-5.7c1.9-1.4,4.1-2.1,6.5-2.1c3,0,5.5,1.1,7.5,3.2c2,2.2,3.3,4.8,4,8
					c1.9-0.1,4-0.5,6.6-1.2c0.3-0.1,0.6-0.1,0.8-0.1C378.4,62.6,378.8,62.8,379.2,63.3L379.2,63.3z M362.8,73.6
					c0.8-1.1,1.3-2.6,1.4-4.6c-1.3-0.9-2.4-2-3.2-3.4s-1.3-2.9-1.4-4.4c-0.1-0.7,0-1.3,0-2c-0.1,0-0.2,0-0.3,0
					c-1.6,0-2.8,0.8-3.8,2.4c-0.9,1.6-1.3,3.8-1,6.7c0.2,2.3,0.8,4,1.8,5.2c1,1.2,2.1,1.8,3.3,1.8C360.9,75.2,362,74.7,362.8,73.6
					L362.8,73.6z"/>
				<path class="st1" d="M377.4,79.3c-0.9-1.6-1.6-4.3-2.1-7.9c-0.7-5.3-0.5-10.4,0.5-15.2c0.2-1.2,0.8-2.1,1.5-2.6
					c0.8-0.5,1.9-0.8,3.3-0.8c0.8,0,1.4,0.1,1.7,0.3c0.3,0.2,0.5,0.6,0.6,1.2c0.1,0.7-0.1,2.1-0.4,4.4c-0.2,1.6-0.4,3.1-0.5,4.3
					c-0.1,1.2-0.1,2.7,0,4.5c0.7-3.2,1.6-5.9,2.9-8.1s2.6-3.9,4-5s2.9-1.6,4.2-1.6s2.4,0.3,3,1c0.6,0.7,1,1.7,1.2,3
					c0.2,1.3,0.1,3.7-0.2,7.2c-0.1,1.5-0.2,2.6-0.2,3.3c1.2-5.1,3-8.7,5.1-11c2.1-2.3,4.2-3.5,6.3-3.5c2.6,0,4,1.3,4.4,4
					c0.2,1.6,0.2,4.5,0,8.7c-0.1,3.6-0.1,5.9,0.2,7.1c0.3,1.7,1.1,2.5,2.3,2.5c0.8,0,1.7-0.5,2.6-1.5s2-2.6,3.5-4.9
					c0.4-0.6,0.9-0.9,1.5-0.9c0.5,0,1,0.2,1.4,0.7s0.7,1.2,0.9,2c0.4,1.7,0.2,2.9-0.3,3.8c-1.2,2.2-2.7,4-4.4,5.4
					c-1.7,1.4-3.8,2.1-6.4,2.1c-2.1,0-3.8-0.6-5.1-1.8s-2.2-3-2.7-5.3c-0.2-1.2-0.3-3.2-0.3-6.2c0.1-2.6,0.1-4.4-0.1-5.4
					c-0.1-0.7-0.4-1-0.8-1c-0.5,0-1.1,0.7-1.9,2.1c-0.8,1.4-1.4,3.2-2,5.5c-0.6,2.3-1,4.7-1.1,7.2c-0.1,2-0.3,3.3-0.8,3.9
					c-0.5,0.7-1.4,1-2.7,1c-1.4,0-2.5-0.7-3.4-1.9c-0.9-1.3-1.5-2.9-1.9-4.7c-0.3-1.6-0.4-3.8-0.5-6.8c-0.1-2.6-0.1-4.4-0.2-5.2
					c-0.1-0.7-0.4-1-0.8-1c-0.6,0-1.3,0.7-2,2.2c-0.7,1.5-1.4,3.4-1.9,5.7c-0.5,2.3-0.9,4.6-1,6.8c-0.1,1.9-0.4,3.2-0.9,3.9
					c-0.5,0.7-1.4,1-2.6,1C379.5,81.8,378.3,80.9,377.4,79.3L377.4,79.3z"/>
				<path class="st1" d="M444.1,70.3c0.4,0.5,0.7,1.2,1,2c0.4,1.5,0.4,2.8,0,3.8c-0.7,1.8-1.8,3.2-3.4,4.1c-1.6,1-3.7,1.5-6.3,1.5
					c-3.9,0-7.3-1.2-10.1-3.6c-2.7-2.4-4.5-5.6-5.3-9.6c-0.6-2.8-0.4-5.5,0.3-7.9s2.1-4.4,3.9-5.8c1.8-1.4,4-2.2,6.6-2.2
					c2.3,0,4.2,0.7,5.8,2.1c1.6,1.4,2.6,3.3,3.1,5.8c0.5,2.8,0.1,5.3-1.5,7.3s-4.5,3.7-9.1,4.8c1.4,1.9,3.3,2.8,5.6,2.8
					c1.7,0,2.9-0.4,3.8-1.2s1.8-2.1,2.8-4c0.3-0.6,0.8-0.9,1.4-0.9C443.2,69.5,443.7,69.8,444.1,70.3L444.1,70.3z M427.4,61.4
					c-0.7,1.8-0.8,3.9-0.3,6.4c0,0,0,0.1,0,0.1c2.2-0.6,3.9-1.4,5.1-2.6c1.1-1.2,1.5-2.5,1.3-4c-0.1-0.8-0.5-1.4-1-1.9
					c-0.5-0.5-1.1-0.7-1.8-0.7C429.2,58.7,428.1,59.6,427.4,61.4z"/>
			</g>
		</g>
		<g>
			<g>
				<circle class="st1" cx="91.2" cy="37.8" r="37.8"/>
				
					<rect x="26.7" y="26.7" transform="matrix(0.7071 -0.7071 0.7071 0.7071 -26.7266 64.5206)" class="st1" width="75.6" height="75.6"/>
				<circle class="st1" cx="37.8" cy="37.8" r="37.8"/>
			</g>
			<g>
				<circle class="st2" cx="88.6" cy="41.2" r="34"/>
				
					<rect x="30.5" y="31.2" transform="matrix(0.7071 -0.7071 0.7071 0.7071 -27.2094 64.7224)" class="st2" width="68" height="68"/>
				<circle class="st2" cx="40.5" cy="41.2" r="34"/>
			</g>
			<g>
				<circle class="st3" cx="84.6" cy="53.2" r="28.3"/>
				
					<rect x="36.2" y="44.9" transform="matrix(0.7071 -0.7071 0.7071 0.7071 -32.8744 67.068)" class="st3" width="56.7" height="56.7"/>
				<circle class="st3" cx="44.5" cy="53.2" r="28.4"/>
			</g>
			<g>
				<circle class="st4" cx="80.6" cy="65.2" r="22.7"/>
				
					<rect x="41.8" y="58.6" transform="matrix(0.7071 -0.7071 0.7071 0.7071 -38.5464 69.4166)" class="st4" width="45.3" height="45.4"/>
				<circle class="st4" cx="48.5" cy="65.2" r="22.7"/>
			</g>
			<g>
				<rect x="47.5" y="75.6" class="st5" width="34" height="11.3"/>
				<rect x="58.8" y="64.2" class="st5" width="11.3" height="34"/>
			</g>
		</g>
	</g>
</g>
</svg>
