<?xml version="1.0" encoding="UTF-8"?>
<svg id="Layer_2" data-name="Layer 2" xmlns="http://www.w3.org/2000/svg" viewBox="0 0 129.04 117.97">
  <defs>
    <style>
      .cls-1 {
        fill: #291334;
      }

      .cls-2 {
        fill: #ef9fbc;
      }

      .cls-3 {
        fill: #eeaf3a;
      }

      .cls-4 {
        fill: #65c3c8;
      }

      .cls-5 {
        fill: #faf7f5;
      }
    </style>
  </defs>
  <g id="Layer_1-2" data-name="Layer 1">
    <g>
      <g>
        <circle class="cls-1" cx="91.25" cy="37.8" r="37.8"/>
        <rect class="cls-1" x="26.73" y="26.73" width="75.59" height="75.59" transform="translate(64.52 -26.73) rotate(45)"/>
        <circle class="cls-1" cx="37.8" cy="37.8" r="37.8"/>
      </g>
      <g>
        <circle class="cls-4" cx="88.57" cy="41.16" r="34.02"/>
        <rect class="cls-4" x="30.5" y="31.19" width="68.03" height="68.03" transform="translate(65.01 -26.52) rotate(45)"/>
        <circle class="cls-4" cx="40.47" cy="41.16" r="34.02"/>
      </g>
      <g>
        <circle class="cls-2" cx="84.56" cy="53.18" r="28.35"/>
        <rect class="cls-2" x="36.17" y="44.88" width="56.69" height="56.69" transform="translate(70.68 -24.18) rotate(45)"/>
        <circle class="cls-2" cx="44.48" cy="53.18" r="28.35"/>
      </g>
      <g>
        <circle class="cls-3" cx="80.56" cy="65.21" r="22.68"/>
        <rect class="cls-3" x="41.84" y="58.57" width="45.35" height="45.35" transform="translate(76.35 -21.83) rotate(45)"/>
        <circle class="cls-3" cx="48.49" cy="65.21" r="22.68"/>
      </g>
      <g>
        <rect class="cls-5" x="47.51" y="75.57" width="34.02" height="11.34"/>
        <rect class="cls-5" x="47.51" y="75.57" width="34.02" height="11.34" transform="translate(-16.72 145.76) rotate(-90)"/>
      </g>
    </g>
  </g>
</svg>