<?xml version="1.0" encoding="UTF-8"?>
<svg id="Layer_2" data-name="Layer 2" xmlns="http://www.w3.org/2000/svg" viewBox="0 0 445.29 117.97">
  <defs>
    <style>
      .cls-1 {
        fill: #291334;
      }

      .cls-2 {
        fill: #ef9fbc;
      }

      .cls-3 {
        fill: #eeaf3a;
      }

      .cls-4 {
        fill: #65c3c8;
      }

      .cls-5 {
        fill: #faf7f5;
      }
    </style>
  </defs>
  <g id="Layer_1-2" data-name="Layer 1">
    <g>
      <g>
        <path class="cls-1" d="m201.66,85.96c.23.48.29,1.13.17,1.97-.23,1.55-.8,2.78-1.72,3.68-4.79,4.77-9.65,7.12-14.24,7.08-3.99-.04-6.84-1.55-8.58-4.52-1.74-2.97-2.03-7.2-1.11-12.7.22-1.34.49-2.67.81-4.01-2.69.47-8.27,1.28-9.03,1.32-1.48,3.99-3.55,8.87-6.45,14.64-1.7,3.39-3.83,5.07-6.26,5.05-2.64-.03-3.61-1.17-2.99-3.43.14-.51.43-1.2.87-2.1,2.78-5.32,4.8-9.84,6.3-13.54-.96.04-1.93.07-2.89.11-1.31,0-2.23-.23-2.74-.68-.51-.45-.67-1.18-.48-2.19.23-1.28.77-2.23,1.62-2.83.85-.6,2.15-.94,3.9-1.02,1.05-.04,2.1-.08,3.16-.11,1.86-5.5,2.78-9.7,3.04-12.59.16-1.84-.02-3.08-.52-3.75-.5-.66-1.2-.99-2.09-.98-2.74.02-5.92,2.32-9.84,6.88-.58.66-1.19.99-1.81,1-.55,0-.99-.25-1.32-.75-.33-.5-.46-1.14-.38-1.92.12-1.2.73-2.49,1.81-3.85,1.9-2.38,4.17-4.35,6.84-5.91,2.67-1.56,5.33-2.36,8.01-2.38,2.52-.02,4.45.83,5.76,2.56,1.3,1.73,1.87,4.44,1.59,8.13-.26,3.25-1.13,7.66-2.85,13.22,1.95-.1,6.49-.6,8.3-.88,1.24-4.33,2.69-8.38,4.4-12.17,1.71-3.79,3.62-6.87,5.83-9.26,2.21-2.38,4.61-3.59,7.25-3.61,1.94-.02,3.46.75,4.55,2.31,1.09,1.56,1.59,3.61,1.48,6.14-.43,9.83-6.09,16.66-16.6,20.43-.32,1.58-.61,3.21-.86,4.91-.62,4.14-.62,7.08.12,8.82.74,1.74,2.05,2.62,3.96,2.63,1.66.01,3.26-.4,4.78-1.24,1.52-.84,3.31-2.29,5.34-4.34.56-.55,1.14-.83,1.75-.82.52,0,.9.24,1.13.72Zm-8.89-32c-1.02,1.59-2.04,3.74-3.09,6.47-1.05,2.73-1.99,5.71-2.84,8.94,3.28-1.3,5.78-3.16,7.46-5.58,1.68-2.41,2.63-5.53,2.79-9.32.04-.91-.09-1.62-.38-2.13-.29-.51-.67-.77-1.14-.76-.86,0-1.78.8-2.81,2.39Z"/>
        <path class="cls-1" d="m227.42,86.07c.25.48.34,1.14.25,1.98-.17,1.6-.69,2.84-1.56,3.71-1.71,1.79-4.04,3.43-7.01,4.93-2.97,1.5-6.06,2.23-9.23,2.2-4.32-.04-7.47-1.2-9.45-3.48-1.98-2.28-2.62-5.38-2.05-9.3.4-2.73,1.32-5.28,2.76-7.63,1.43-2.35,3.22-4.23,5.39-5.62,2.17-1.39,4.52-2.08,7.08-2.08,2.28,0,4.06.69,5.33,2.06,1.27,1.38,1.81,3.24,1.59,5.6-.26,2.75-1.49,5.11-3.71,7.08-2.21,1.96-5.79,3.51-10.73,4.63.74,1.83,2.53,2.76,5.38,2.78,1.83.01,4-.6,6.49-1.84,2.49-1.24,4.69-2.88,6.59-4.91.54-.56,1.11-.83,1.71-.83.52,0,.91.24,1.16.72Zm-19.35-6.89c-1.21,1.71-1.96,3.77-2.29,6.19,0,.04-.01.08-.02.12,2.44-.54,4.41-1.37,5.9-2.48,1.49-1.11,2.31-2.4,2.46-3.87.08-.76-.07-1.36-.44-1.82-.37-.46-.91-.69-1.63-.69-1.47,0-2.79.85-3.99,2.56Z"/>
        <path class="cls-1" d="m222.86,96.3c-1.28-1.81-1.72-4.17-1.38-7.08.37-3.19,1.44-6.21,3.17-9.06,1.74-2.85,3.86-5.15,6.41-6.88,2.55-1.74,5.16-2.61,7.88-2.61.87,0,1.44.17,1.71.51.28.34.49.95.64,1.83.84-.16,1.71-.24,2.62-.24,1.93,0,2.87.7,2.79,2.11-.05.84-.45,2.85-1.25,6.02-1.22,4.62-1.94,7.83-2.09,9.63-.05.6.06,1.09.34,1.45.27.36.65.55,1.14.55.77,0,1.75-.48,2.91-1.46,1.17-.98,2.76-2.57,4.74-4.78.52-.56,1.07-.84,1.68-.84.52,0,.92.24,1.19.73.27.48.39,1.15.34,1.99-.09,1.61-.56,2.86-1.38,3.74-1.8,2.05-3.7,3.76-5.7,5.16-2,1.4-3.89,2.08-5.66,2.07-1.36-.01-2.56-.47-3.59-1.38-1.04-.91-1.76-2.15-2.17-3.72-2.45,3.35-5.35,5.02-8.6,4.99-2.55-.02-4.47-.94-5.74-2.74Zm11.37-4.85c.91-1.04,1.63-2.42,2.15-4.14,1.07-3.68,2.09-7.37,3.06-11.06-1.67.04-3.24.67-4.74,1.89-1.5,1.22-2.75,2.83-3.77,4.82-1.02,2-1.65,4.12-1.88,6.36-.13,1.24.02,2.16.46,2.76.44.6,1.11.91,2,.91.89,0,1.8-.51,2.72-1.55Z"/>
        <path class="cls-1" d="m274.95,85.08c.29.53.42,1.26.4,2.18-.05,1.76-.47,3.13-1.27,4.09-1.81,2.33-3.79,4.23-5.92,5.71-2.13,1.48-4.53,2.21-7.15,2.19-3.62-.03-6.19-1.8-7.68-5.32-1.5-3.52-2.06-8.06-1.76-13.63.29-5.35,1.19-11.44,2.63-18.28,1.44-6.84,3.35-12.73,5.78-17.66,2.43-4.93,5.27-7.41,8.57-7.44,1.86-.01,3.32.96,4.39,2.91,1.06,1.95,1.58,4.76,1.55,8.41-.04,5.24-1.39,11.33-4.13,18.24-2.74,6.91-6.49,13.75-11.38,20.49.19,1.8.59,3.09,1.2,3.86.61.77,1.44,1.16,2.5,1.17,1.66,0,3.15-.5,4.45-1.53,1.3-1.03,2.96-2.79,4.96-5.29.5-.61,1.05-.92,1.65-.92.52,0,.93.27,1.21.8Zm-10.8-36.11c-1.17,3.65-2.24,8.18-3.24,13.58-1,5.4-1.66,10.58-1.95,15.54,3.04-5.13,5.42-10.28,7.18-15.45,1.76-5.17,2.64-9.89,2.68-14.16.03-3.34-.5-5.01-1.59-5.01-.9,0-1.91,1.84-3.08,5.49Z"/>
        <path class="cls-1" d="m295.7,86.32c.27.49.41,1.16.41,2.01.01,1.63-.32,2.89-1,3.78-1.54,2.15-3.24,3.9-5.1,5.27-1.86,1.37-4,2.04-6.41,2.03-7.48-.05-10.95-5.88-10.61-17.48.05-1.78.15-3.58.29-5.39-.69,0-1.37,0-2.06,0-1.06,0-1.76-.22-2.12-.67-.36-.44-.52-1.15-.5-2.12.06-2.26.87-3.39,2.45-3.39,1,0,1.99,0,2.99,0,.68-4.45,1.64-8.51,2.89-12.19,1.25-3.68,2.72-6.62,4.44-8.82,1.72-2.19,3.56-3.3,5.52-3.31,1.45,0,2.58.74,3.41,2.23.82,1.5,1.24,3.38,1.23,5.65-.01,6.29-2.26,11.78-6.84,16.44,1.96,0,3.92,0,5.87,0,.56,0,.96.14,1.21.43.24.28.37.81.37,1.58,0,2.8-1.99,4.2-5.97,4.19-2.15,0-4.29,0-6.44,0-.1,2.02-.16,3.6-.18,4.74-.07,4.21.3,7.17,1.15,8.87.85,1.7,2.23,2.56,4.14,2.57,1.55,0,2.93-.51,4.12-1.56,1.19-1.05,2.6-2.63,4.2-4.73.43-.57.91-.85,1.44-.85.46,0,.83.25,1.1.74Zm-11.96-32.16c-.65,1.52-1.26,3.63-1.86,6.32-.59,2.69-1.1,5.68-1.52,8.96,2.09-2.07,3.64-4.39,4.69-6.96,1.04-2.57,1.56-4.92,1.57-7.03,0-2.39-.37-3.59-1.13-3.58-.52,0-1.1.76-1.75,2.29Z"/>
        <path class="cls-1" d="m326.53,86.4c.33.49.51,1.16.56,2.02.09,1.63-.22,2.9-.94,3.8-1.74,2.16-3.56,3.93-5.47,5.31-1.91,1.38-4.15,2.06-6.7,2.05-2.1-.01-3.7-.62-4.81-1.83-1.11-1.21-1.68-2.95-1.74-5.23-.03-1.14.2-3.18.69-6.11.46-2.56.68-4.34.66-5.31-.01-.65-.24-.98-.68-.98-.52,0-1.24.68-2.17,2.04-.93,1.36-1.86,3.16-2.79,5.4-.93,2.23-1.68,4.59-2.25,7.07-.72,3.25-2.63,4.87-5.71,4.85-1.23,0-2.05-.45-2.44-1.32-.39-.87-.59-2.45-.59-4.72,0-1.3.02-2.33.06-3.11.02-1.62.04-3.25.06-4.87,0-6.25.63-12.77,1.86-19.55,1.23-6.78,3.04-12.48,5.42-17.11,2.39-4.62,5.26-6.95,8.59-6.96,1.78,0,3.23.79,4.33,2.39,1.1,1.6,1.66,3.69,1.67,6.26.02,4.12-1.08,8.39-3.33,12.81-2.25,4.42-5.93,9.59-11.16,15.47-.1,2.11-.14,4.29-.11,6.53,1.29-3.45,2.71-6.27,4.29-8.44,1.58-2.17,3.13-3.73,4.67-4.67,1.54-.94,2.96-1.4,4.26-1.4,2.56,0,3.87,1.33,3.94,3.98.04,1.59-.31,4.47-1.05,8.62-.64,3.55-.94,5.89-.9,7.03.06,1.63.68,2.45,1.86,2.45.81,0,1.75-.49,2.82-1.49,1.07-1,2.48-2.61,4.22-4.85.46-.57.98-.86,1.58-.85.52,0,.94.25,1.27.74Zm-21.92-35.36c-.85,2.1-1.67,4.93-2.45,8.49-.78,3.56-1.42,7.43-1.9,11.62,2.42-2.97,4.4-6.2,5.95-9.71,1.55-3.5,2.32-6.68,2.31-9.53,0-1.3-.14-2.3-.42-2.99-.27-.69-.66-1.04-1.17-1.03-.7,0-1.47,1.05-2.32,3.15Z"/>
        <path class="cls-1" d="m329.53,99.53c-1.2-.99-1.84-2.09-1.92-3.32-.07-1.06.26-1.98.98-2.75.72-.77,1.83-1.16,3.33-1.15.53,0,1.15.06,1.87.16.72.1,1.26.18,1.63.22-.12-1.06-.43-2.07-.92-3.01-.49-.94-1.08-1.85-1.78-2.73-.7-.88-1.35-1.65-1.94-2.3-1.1,2.41-2.22,4.41-3.36,6-1.14,1.59-2.4,3.1-3.78,4.52-.69.73-1.45,1.1-2.26,1.09-.65,0-1.2-.24-1.63-.71-.43-.47-.66-1.05-.7-1.75-.04-.82.21-1.57.74-2.26.25-.33.5-.65.74-.98,2.09-2.77,3.64-5.05,4.68-6.85.62-1.18,1.35-2.76,2.17-4.74.82-1.98,1.63-4.03,2.41-6.16.68-1.8,2.2-2.7,4.56-2.7,1.1,0,1.87.1,2.32.31.44.21.67.53.69.98.01.25-.05.63-.18,1.17-.13.53-.32,1.06-.57,1.6-.64,1.47-.93,2.72-.87,3.74.03.61.28,1.29.74,2.03.46.74,1.16,1.66,2.11,2.76,1.39,1.72,2.47,3.19,3.23,4.4.76,1.21,1.2,2.53,1.32,3.96.04.41.04.98.03,1.72,1.92-.77,4.06-2.83,6.41-6.19.43-.57.95-.86,1.55-.86.52,0,.95.25,1.3.74.35.49.56,1.17.64,2.03.15,1.56-.1,2.83-.77,3.81-1.77,2.54-3.53,4.26-5.3,5.18-1.77.92-4.03,1.41-6.77,1.48-1.51,1.39-3.41,2.07-5.67,2.06-2.14,0-3.82-.51-5.02-1.49Z"/>
        <path class="cls-1" d="m379.2,81.38c.34.54.56,1.21.66,2.03.25,1.97-.18,3.14-1.29,3.51-2.3.86-4.89,1.35-7.78,1.47-.34,3.45-1.47,6.21-3.47,8.28-2,2.07-4.47,3.1-7.39,3.09-2.46,0-4.65-.61-6.53-1.8-1.88-1.19-3.36-2.78-4.45-4.75-1.09-1.97-1.72-4.1-1.92-6.39-.26-3.11.11-5.89,1.09-8.32.98-2.44,2.44-4.34,4.36-5.71,1.92-1.37,4.1-2.06,6.55-2.06,2.99,0,5.47,1.08,7.48,3.23,2.01,2.16,3.34,4.82,4,7.98,1.86-.12,4.05-.53,6.56-1.23.31-.08.58-.12.82-.12.52,0,.95.27,1.29.8Zm-16.4,10.26c.82-1.07,1.28-2.6,1.38-4.61-1.34-.86-2.41-1.99-3.21-3.39-.8-1.4-1.26-2.87-1.39-4.43-.06-.66-.05-1.31.01-1.97-.1,0-.2,0-.3,0-1.59,0-2.84.79-3.77,2.37-.92,1.58-1.27,3.8-1,6.67.21,2.26.82,3.98,1.82,5.17,1,1.19,2.09,1.79,3.27,1.79,1.3,0,2.36-.53,3.19-1.59Z"/>
        <path class="cls-1" d="m377.39,97.34c-.89-1.64-1.61-4.28-2.1-7.89-.71-5.34-.53-10.41.49-15.22.25-1.19.75-2.06,1.51-2.62.76-.55,1.87-.83,3.32-.83.79,0,1.35.1,1.68.31.33.21.53.6.58,1.17.06.66-.09,2.14-.44,4.44-.22,1.64-.37,3.07-.47,4.29-.09,1.21-.11,2.72-.03,4.53.66-3.21,1.62-5.92,2.86-8.14,1.24-2.22,2.59-3.87,4.04-4.96,1.45-1.09,2.86-1.63,4.24-1.63,1.38,0,2.39.33,3.03.99.64.66,1.04,1.67,1.2,3.02.16,1.32.07,3.7-.19,7.16-.11,1.48-.16,2.59-.16,3.33,1.22-5.06,2.96-8.74,5.09-11.05,2.13-2.3,4.25-3.46,6.33-3.46,2.56,0,3.99,1.34,4.35,4.01.22,1.61.19,4.51.03,8.71-.15,3.58-.06,5.95.17,7.11.33,1.65,1.09,2.47,2.27,2.47.81,0,1.67-.5,2.57-1.51.9-1.01,2.04-2.64,3.45-4.91.37-.58.85-.86,1.46-.86.52,0,.98.25,1.38.74.4.49.69,1.17.87,2.04.35,1.65.25,2.93-.32,3.83-1.25,2.18-2.71,3.98-4.4,5.37-1.69,1.4-3.83,2.1-6.42,2.09-2.1,0-3.82-.61-5.15-1.83-1.33-1.22-2.23-2.98-2.68-5.28-.22-1.15-.34-3.21-.29-6.18.08-2.59.06-4.38-.09-5.37-.1-.66-.37-.99-.81-.99-.52,0-1.15.69-1.9,2.07-.75,1.38-1.42,3.2-2.01,5.46-.58,2.26-.95,4.65-1.08,7.16-.07,1.98-.32,3.29-.78,3.95-.46.66-1.35.99-2.66.98-1.36,0-2.5-.65-3.42-1.95-.92-1.3-1.54-2.87-1.86-4.72-.27-1.56-.44-3.83-.48-6.79-.07-2.63-.14-4.36-.25-5.18-.09-.66-.35-.99-.79-.99-.6,0-1.26.74-1.98,2.22-.72,1.48-1.36,3.37-1.89,5.67-.53,2.3-.88,4.56-1.04,6.78-.13,1.93-.42,3.24-.9,3.91-.48.68-1.35,1.01-2.63,1.01-1.56,0-2.8-.83-3.7-2.47Z"/>
        <path class="cls-1" d="m444.06,88.3c.42.5.74,1.17.96,2.04.37,1.48.37,2.76-.03,3.83-.66,1.77-1.77,3.15-3.35,4.14-1.58.99-3.67,1.48-6.26,1.48-3.94,0-7.34-1.19-10.08-3.56-2.74-2.37-4.54-5.58-5.33-9.61-.56-2.84-.44-5.49.31-7.94.75-2.45,2.06-4.4,3.89-5.84,1.83-1.44,4.02-2.16,6.58-2.16,2.28,0,4.21.71,5.81,2.13,1.6,1.42,2.61,3.35,3.07,5.78.53,2.84.07,5.29-1.47,7.33-1.54,2.04-4.55,3.66-9.09,4.85,1.4,1.9,3.29,2.85,5.6,2.85,1.67,0,2.94-.39,3.82-1.17.88-.78,1.79-2.1,2.76-3.96.34-.62.81-.93,1.41-.93.52,0,.99.25,1.41.74Zm-16.66-8.9c-.7,1.77-.82,3.91-.31,6.43,0,.04.02.08.03.12,2.25-.58,3.93-1.44,5.06-2.59,1.13-1.15,1.54-2.49,1.27-4.02-.14-.78-.46-1.41-.96-1.89-.5-.47-1.1-.71-1.82-.71-1.47,0-2.56.89-3.27,2.66Z"/>
      </g>
      <g>
        <g>
          <circle class="cls-1" cx="91.25" cy="37.8" r="37.8"/>
          <rect class="cls-1" x="26.73" y="26.73" width="75.59" height="75.59" transform="translate(64.52 -26.73) rotate(45)"/>
          <circle class="cls-1" cx="37.8" cy="37.8" r="37.8"/>
        </g>
        <g>
          <circle class="cls-4" cx="88.57" cy="41.16" r="34.02"/>
          <rect class="cls-4" x="30.5" y="31.19" width="68.03" height="68.03" transform="translate(65.01 -26.52) rotate(45)"/>
          <circle class="cls-4" cx="40.47" cy="41.16" r="34.02"/>
        </g>
        <g>
          <circle class="cls-2" cx="84.56" cy="53.18" r="28.35"/>
          <rect class="cls-2" x="36.17" y="44.88" width="56.69" height="56.69" transform="translate(70.68 -24.18) rotate(45)"/>
          <circle class="cls-2" cx="44.48" cy="53.18" r="28.35"/>
        </g>
        <g>
          <circle class="cls-3" cx="80.56" cy="65.21" r="22.68"/>
          <rect class="cls-3" x="41.84" y="58.57" width="45.35" height="45.35" transform="translate(76.35 -21.83) rotate(45)"/>
          <circle class="cls-3" cx="48.49" cy="65.21" r="22.68"/>
        </g>
        <g>
          <rect class="cls-5" x="47.51" y="75.57" width="34.02" height="11.34"/>
          <rect class="cls-5" x="47.51" y="75.57" width="34.02" height="11.34" transform="translate(-16.72 145.76) rotate(-90)"/>
        </g>
      </g>
    </g>
  </g>
</svg>